<svg width="131" height="39" viewBox="0 0 131 39" fill="none" xmlns="http://www.w3.org/2000/svg">
<rect x="0.5" y="0.5" width="129.438" height="38" rx="3.5" fill="#ECEBEB"/>
<rect x="0.5" y="0.5" width="129.438" height="38" rx="3.5" stroke="#818181"/>
<g filter="url(#filter0_d_57_5967)">
<path d="M16.6777 22.0342L19.5408 23.6871L13.7269 33.7571L12.0582 30.0355L16.6777 22.0342Z" fill="#418ED6"/>
<path d="M16.6777 22.0342L13.8147 20.3812L8.00081 30.4512L12.0582 30.0355L16.6777 22.0342Z" fill="#2B63A6"/>
<path d="M20.7617 22.0342L17.8987 23.6871L23.7126 33.7571L25.3813 30.0355L20.7617 22.0342Z" fill="#2B63A6"/>
<path d="M20.7617 22.0342L23.6247 20.3812L29.4386 30.4512L25.3813 30.0355L20.7617 22.0342Z" fill="#418ED6"/>
<circle cx="18.7143" cy="15.1" r="9.94369" fill="#E3E3E3" stroke="#404040" stroke-width="0.173677"/>
<circle cx="18.7137" cy="15.1004" r="7.69416" fill="#595959"/>
<mask id="mask0_57_5967" style="mask-type:alpha" maskUnits="userSpaceOnUse" x="11" y="8" width="16" height="16">
<circle cx="19.1261" cy="15.922" r="7.71207" fill="#C28B37"/>
</mask>
<g mask="url(#mask0_57_5967)">
<circle cx="18.716" cy="15.1007" r="7.71207" fill="url(#paint0_linear_57_5967)"/>
</g>
<path d="M18.7564 9.73438L20.42 13.0616L23.7472 13.4775L21.4626 16.0394L22.0836 19.716L18.7564 18.0524L15.4292 19.716L16.0559 16.0394L13.7656 13.4775L17.0928 13.0616L18.7564 9.73438Z" fill="url(#paint1_linear_57_5967)"/>
</g>
<path d="M44.4788 9.98044C44.4788 10.3239 44.4 10.6391 44.2424 10.9262C44.0848 11.2077 43.8427 11.4357 43.5162 11.6102C43.1896 11.7847 42.7843 11.872 42.3002 11.872H41.4051V14H39.9611V8.072H42.3002C42.7731 8.072 43.1728 8.15363 43.4993 8.31689C43.8258 8.48015 44.0707 8.70533 44.2339 8.99244C44.3972 9.27955 44.4788 9.60889 44.4788 9.98044ZM42.1904 10.7236C42.4662 10.7236 42.6717 10.6588 42.8068 10.5293C42.9419 10.3999 43.0095 10.2169 43.0095 9.98044C43.0095 9.744 42.9419 9.56104 42.8068 9.43156C42.6717 9.30207 42.4662 9.23733 42.1904 9.23733H41.4051V10.7236H42.1904ZM46.6746 7.75111V14H45.2306V7.75111H46.6746ZM47.4339 11.6356C47.4339 11.1514 47.524 10.7264 47.7041 10.3604C47.8899 9.99452 48.1404 9.71304 48.4557 9.516C48.771 9.31896 49.1228 9.22044 49.5113 9.22044C49.8434 9.22044 50.1333 9.288 50.381 9.42311C50.6344 9.55822 50.8286 9.73556 50.9637 9.95511V9.288H52.4077V14H50.9637V13.3329C50.823 13.5524 50.6259 13.7298 50.3726 13.8649C50.1249 14 49.835 14.0676 49.5028 14.0676C49.12 14.0676 48.771 13.969 48.4557 13.772C48.1404 13.5693 47.8899 13.285 47.7041 12.9191C47.524 12.5476 47.4339 12.1197 47.4339 11.6356ZM50.9637 11.644C50.9637 11.2837 50.8624 10.9994 50.6597 10.7911C50.4627 10.5828 50.2206 10.4787 49.9335 10.4787C49.6464 10.4787 49.4015 10.5828 49.1988 10.7911C49.0018 10.9938 48.9033 11.2753 48.9033 11.6356C48.9033 11.9959 49.0018 12.283 49.1988 12.4969C49.4015 12.7052 49.6464 12.8093 49.9335 12.8093C50.2206 12.8093 50.4627 12.7052 50.6597 12.4969C50.8624 12.2886 50.9637 12.0043 50.9637 11.644ZM56.0786 12.7756V14H55.3439C54.8204 14 54.4122 13.8733 54.1195 13.62C53.8267 13.361 53.6804 12.9416 53.6804 12.3618V10.4871H53.1062V9.288H53.6804V8.13956H55.1244V9.288H56.0702V10.4871H55.1244V12.3787C55.1244 12.5194 55.1582 12.6207 55.2257 12.6827C55.2933 12.7446 55.4059 12.7756 55.5635 12.7756H56.0786ZM57.6092 8.79822C57.3558 8.79822 57.1475 8.72504 56.9843 8.57867C56.8266 8.42667 56.7478 8.24089 56.7478 8.02133C56.7478 7.79615 56.8266 7.61037 56.9843 7.464C57.1475 7.312 57.3558 7.236 57.6092 7.236C57.8569 7.236 58.0595 7.312 58.2172 7.464C58.3804 7.61037 58.462 7.79615 58.462 8.02133C58.462 8.24089 58.3804 8.42667 58.2172 8.57867C58.0595 8.72504 57.8569 8.79822 57.6092 8.79822ZM58.3269 9.288V14H56.8829V9.288H58.3269ZM62.2445 9.23733C62.7962 9.23733 63.2353 9.41748 63.5618 9.77778C63.894 10.1324 64.06 10.6222 64.06 11.2471V14H62.6245V11.4413C62.6245 11.1261 62.5429 10.8812 62.3796 10.7067C62.2163 10.5321 61.9968 10.4449 61.7209 10.4449C61.4451 10.4449 61.2255 10.5321 61.0623 10.7067C60.899 10.8812 60.8174 11.1261 60.8174 11.4413V14H59.3734V9.288H60.8174V9.91289C60.9638 9.70459 61.1608 9.54133 61.4085 9.42311C61.6562 9.29926 61.9349 9.23733 62.2445 9.23733ZM69.7164 9.288V14H68.2724V13.3582C68.126 13.5665 67.9262 13.7354 67.6728 13.8649C67.4251 13.9887 67.1493 14.0507 66.8453 14.0507C66.485 14.0507 66.1669 13.9719 65.891 13.8142C65.6152 13.651 65.4013 13.4173 65.2493 13.1133C65.0973 12.8093 65.0213 12.4519 65.0213 12.0409V9.288H66.4568V11.8467C66.4568 12.1619 66.5384 12.4068 66.7017 12.5813C66.865 12.7559 67.0845 12.8431 67.3604 12.8431C67.6419 12.8431 67.8642 12.7559 68.0275 12.5813C68.1907 12.4068 68.2724 12.1619 68.2724 11.8467V9.288H69.7164ZM76.766 9.23733C77.3515 9.23733 77.816 9.41467 78.1594 9.76933C78.5084 10.124 78.6829 10.6166 78.6829 11.2471V14H77.2474V11.4413C77.2474 11.1373 77.1657 10.9037 77.0025 10.7404C76.8449 10.5716 76.6253 10.4871 76.3438 10.4871C76.0623 10.4871 75.84 10.5716 75.6767 10.7404C75.5191 10.9037 75.4403 11.1373 75.4403 11.4413V14H74.0047V11.4413C74.0047 11.1373 73.9231 10.9037 73.7598 10.7404C73.6022 10.5716 73.3826 10.4871 73.1011 10.4871C72.8197 10.4871 72.5973 10.5716 72.434 10.7404C72.2764 10.9037 72.1976 11.1373 72.1976 11.4413V14H70.7536V9.288H72.1976V9.87911C72.344 9.68207 72.5354 9.52726 72.7718 9.41467C73.0083 9.29644 73.2757 9.23733 73.574 9.23733C73.9287 9.23733 74.244 9.31333 74.5198 9.46533C74.8013 9.61733 75.0209 9.83407 75.1785 10.1156C75.3417 9.85659 75.5641 9.64548 75.8456 9.48222C76.1271 9.31896 76.4339 9.23733 76.766 9.23733Z" fill="#404040"/>
<path d="M45.8215 22.096V23.6385H43.7273V30H41.8019V23.6385H39.7077V22.096H45.8215ZM49.6476 30.0901C49.0321 30.0901 48.4767 29.9587 47.9813 29.696C47.4934 29.4333 47.1068 29.058 46.8216 28.5701C46.5438 28.0822 46.405 27.5117 46.405 26.8587C46.405 26.2131 46.5476 25.6464 46.8328 25.1585C47.118 24.6631 47.5084 24.284 48.0038 24.0213C48.4992 23.7586 49.0546 23.6273 49.6701 23.6273C50.2856 23.6273 50.8411 23.7586 51.3365 24.0213C51.8319 24.284 52.2222 24.6631 52.5075 25.1585C52.7927 25.6464 52.9353 26.2131 52.9353 26.8587C52.9353 27.5042 52.789 28.0747 52.4962 28.5701C52.211 29.058 51.8169 29.4333 51.314 29.696C50.8186 29.9587 50.2631 30.0901 49.6476 30.0901ZM49.6476 28.4237C50.0154 28.4237 50.3269 28.2886 50.5821 28.0184C50.8449 27.7481 50.9762 27.3616 50.9762 26.8587C50.9762 26.3558 50.8486 25.9692 50.5934 25.699C50.3457 25.4287 50.0379 25.2936 49.6701 25.2936C49.2948 25.2936 48.9833 25.4287 48.7356 25.699C48.4879 25.9617 48.3641 26.3482 48.3641 26.8587C48.3641 27.3616 48.4842 27.7481 48.7244 28.0184C48.9721 28.2886 49.2798 28.4237 49.6476 28.4237ZM55.8821 24.6068C56.0697 24.3141 56.3287 24.0776 56.659 23.8975C56.9892 23.7173 57.3758 23.6273 57.8187 23.6273C58.3366 23.6273 58.8057 23.7586 59.2261 24.0213C59.6464 24.284 59.9767 24.6594 60.2169 25.1473C60.4646 25.6352 60.5885 26.2019 60.5885 26.8474C60.5885 27.4929 60.4646 28.0634 60.2169 28.5588C59.9767 29.0467 59.6464 29.4258 59.2261 29.696C58.8057 29.9587 58.3366 30.0901 57.8187 30.0901C57.3833 30.0901 56.9968 30 56.659 29.8199C56.3287 29.6397 56.0697 29.407 55.8821 29.1218V32.995H53.9568V23.7173H55.8821V24.6068ZM58.6293 26.8474C58.6293 26.367 58.4942 25.9917 58.224 25.7215C57.9613 25.4438 57.6348 25.3049 57.2445 25.3049C56.8616 25.3049 56.5351 25.4438 56.2649 25.7215C56.0022 25.9992 55.8708 26.3783 55.8708 26.8587C55.8708 27.3391 56.0022 27.7181 56.2649 27.9959C56.5351 28.2736 56.8616 28.4124 57.2445 28.4124C57.6273 28.4124 57.9538 28.2736 58.224 27.9959C58.4942 27.7106 58.6293 27.3278 58.6293 26.8474ZM65.9099 24.6068C66.0975 24.3141 66.3565 24.0776 66.6868 23.8975C67.017 23.7173 67.4036 23.6273 67.8465 23.6273C68.3644 23.6273 68.8335 23.7586 69.2539 24.0213C69.6742 24.284 70.0045 24.6594 70.2447 25.1473C70.4924 25.6352 70.6162 26.2019 70.6162 26.8474C70.6162 27.4929 70.4924 28.0634 70.2447 28.5588C70.0045 29.0467 69.6742 29.4258 69.2539 29.696C68.8335 29.9587 68.3644 30.0901 67.8465 30.0901C67.4111 30.0901 67.0245 30 66.6868 29.8199C66.3565 29.6397 66.0975 29.407 65.9099 29.1218V32.995H63.9845V23.7173H65.9099V24.6068ZM68.6571 26.8474C68.6571 26.367 68.522 25.9917 68.2518 25.7215C67.9891 25.4438 67.6626 25.3049 67.2722 25.3049C66.8894 25.3049 66.5629 25.4438 66.2927 25.7215C66.03 25.9992 65.8986 26.3783 65.8986 26.8587C65.8986 27.3391 66.03 27.7181 66.2927 27.9959C66.5629 28.2736 66.8894 28.4124 67.2722 28.4124C67.6551 28.4124 67.9816 28.2736 68.2518 27.9959C68.522 27.7106 68.6571 27.3278 68.6571 26.8474ZM73.5516 24.7644C73.7768 24.4192 74.0583 24.1489 74.3961 23.9538C74.7339 23.7511 75.1092 23.6498 75.522 23.6498V25.6877H74.9928C74.5124 25.6877 74.1521 25.7928 73.9119 26.003C73.6717 26.2056 73.5516 26.5659 73.5516 27.0839V30H71.6263V23.7173H73.5516V24.7644ZM79.3021 30.0901C78.6866 30.0901 78.1312 29.9587 77.6358 29.696C77.1479 29.4333 76.7613 29.058 76.4761 28.5701C76.1983 28.0822 76.0595 27.5117 76.0595 26.8587C76.0595 26.2131 76.2021 25.6464 76.4873 25.1585C76.7726 24.6631 77.1629 24.284 77.6583 24.0213C78.1537 23.7586 78.7092 23.6273 79.3247 23.6273C79.9402 23.6273 80.4956 23.7586 80.991 24.0213C81.4864 24.284 81.8768 24.6631 82.162 25.1585C82.4472 25.6464 82.5898 26.2131 82.5898 26.8587C82.5898 27.5042 82.4435 28.0747 82.1507 28.5701C81.8655 29.058 81.4714 29.4333 80.9685 29.696C80.4731 29.9587 79.9176 30.0901 79.3021 30.0901ZM79.3021 28.4237C79.6699 28.4237 79.9814 28.2886 80.2367 28.0184C80.4994 27.7481 80.6307 27.3616 80.6307 26.8587C80.6307 26.3558 80.5031 25.9692 80.2479 25.699C80.0002 25.4287 79.6925 25.2936 79.3247 25.2936C78.9493 25.2936 78.6378 25.4287 78.3901 25.699C78.1424 25.9617 78.0186 26.3482 78.0186 26.8587C78.0186 27.3616 78.1387 27.7481 78.3789 28.0184C78.6266 28.2886 78.9343 28.4237 79.3021 28.4237ZM85.5366 24.6068C85.7243 24.3141 85.9832 24.0776 86.3135 23.8975C86.6438 23.7173 87.0303 23.6273 87.4732 23.6273C87.9911 23.6273 88.4603 23.7586 88.8806 24.0213C89.3009 24.284 89.6312 24.6594 89.8714 25.1473C90.1191 25.6352 90.243 26.2019 90.243 26.8474C90.243 27.4929 90.1191 28.0634 89.8714 28.5588C89.6312 29.0467 89.3009 29.4258 88.8806 29.696C88.4603 29.9587 87.9911 30.0901 87.4732 30.0901C87.0378 30.0901 86.6513 30 86.3135 29.8199C85.9832 29.6397 85.7243 29.407 85.5366 29.1218V32.995H83.6113V23.7173H85.5366V24.6068ZM88.2839 26.8474C88.2839 26.367 88.1487 25.9917 87.8785 25.7215C87.6158 25.4438 87.2893 25.3049 86.899 25.3049C86.5162 25.3049 86.1896 25.4438 85.9194 25.7215C85.6567 25.9992 85.5253 26.3783 85.5253 26.8587C85.5253 27.3391 85.6567 27.7181 85.9194 27.9959C86.1896 28.2736 86.5162 28.4124 86.899 28.4124C87.2818 28.4124 87.6083 28.2736 87.8785 27.9959C88.1487 27.7106 88.2839 27.3278 88.2839 26.8474ZM97.1754 26.7573C97.1754 26.9375 97.1642 27.1251 97.1416 27.3203H92.7843C92.8143 27.7106 92.9382 28.0109 93.1559 28.221C93.3811 28.4237 93.655 28.525 93.9778 28.525C94.4582 28.525 94.7922 28.3224 94.9799 27.917H97.0291C96.924 28.3299 96.7326 28.7014 96.4548 29.0317C96.1846 29.362 95.8431 29.6209 95.4302 29.8086C95.0174 29.9962 94.5558 30.0901 94.0453 30.0901C93.4298 30.0901 92.8819 29.9587 92.4015 29.696C91.9211 29.4333 91.5458 29.058 91.2756 28.5701C91.0053 28.0822 90.8702 27.5117 90.8702 26.8587C90.8702 26.2056 91.0016 25.6352 91.2643 25.1473C91.5345 24.6594 91.9098 24.284 92.3902 24.0213C92.8706 23.7586 93.4223 23.6273 94.0453 23.6273C94.6533 23.6273 95.1938 23.7549 95.6667 24.0101C96.1396 24.2653 96.5074 24.6293 96.7701 25.1022C97.0403 25.5751 97.1754 26.1268 97.1754 26.7573ZM95.2051 26.2507C95.2051 25.9204 95.0925 25.6577 94.8673 25.4625C94.6421 25.2674 94.3606 25.1698 94.0228 25.1698C93.7001 25.1698 93.4261 25.2636 93.2009 25.4513C92.9832 25.6389 92.8481 25.9054 92.7956 26.2507H95.2051ZM100.116 24.7644C100.342 24.4192 100.623 24.1489 100.961 23.9538C101.299 23.7511 101.674 23.6498 102.087 23.6498V25.6877H101.558C101.077 25.6877 100.717 25.7928 100.477 26.003C100.237 26.2056 100.116 26.5659 100.116 27.0839V30H98.1911V23.7173H100.116V24.7644ZM106.509 28.3674V30H105.529C104.831 30 104.287 29.8311 103.897 29.4933C103.506 29.148 103.311 28.5888 103.311 27.8157V25.3161H102.545V23.7173H103.311V22.1861H105.236V23.7173H106.497V25.3161H105.236V27.8382C105.236 28.0259 105.281 28.161 105.372 28.2436C105.462 28.3261 105.612 28.3674 105.822 28.3674H106.509ZM113.999 23.7173L110.058 32.9837H107.987L109.428 29.7861L106.872 23.7173H109.022L110.475 27.6468L111.916 23.7173H113.999Z" fill="#404040"/>
<defs>
<filter id="filter0_d_57_5967" x="7.86392" y="4.93326" width="23.6167" height="30.8647" filterUnits="userSpaceOnUse" color-interpolation-filters="sRGB">
<feFlood flood-opacity="0" result="BackgroundImageFix"/>
<feColorMatrix in="SourceAlpha" type="matrix" values="0 0 0 0 0 0 0 0 0 0 0 0 0 0 0 0 0 0 127 0" result="hardAlpha"/>
<feOffset dx="0.952529" dy="0.952529"/>
<feGaussianBlur stdDeviation="0.544302"/>
<feComposite in2="hardAlpha" operator="out"/>
<feColorMatrix type="matrix" values="0 0 0 0 0 0 0 0 0 0 0 0 0 0 0 0 0 0 0.3 0"/>
<feBlend mode="normal" in2="BackgroundImageFix" result="effect1_dropShadow_57_5967"/>
<feBlend mode="normal" in="SourceGraphic" in2="effect1_dropShadow_57_5967" result="shape"/>
</filter>
<linearGradient id="paint0_linear_57_5967" x1="18.716" y1="7.38867" x2="18.716" y2="22.8128" gradientUnits="userSpaceOnUse">
<stop stop-color="#9CA1A3"/>
<stop offset="1" stop-color="#9CA1A3" stop-opacity="0"/>
</linearGradient>
<linearGradient id="paint1_linear_57_5967" x1="18.7564" y1="9.73438" x2="18.7564" y2="19.716" gradientUnits="userSpaceOnUse">
<stop stop-color="#F1F5F5"/>
<stop offset="0.0001" stop-color="white"/>
<stop offset="1" stop-color="#F1F5F5"/>
</linearGradient>
</defs>
</svg>
