<svg xmlns="http://www.w3.org/2000/svg" width="22" height="20" viewBox="0 0 28 26">
  <g fill="none" fill-rule="evenodd" transform="translate(1 1)">
    <g fill="#FFFFFF" fill-rule="nonzero">
      <path d="M26.4339623,23.2075472 L25.8679245,23.2075472 C25.5553105,23.2075472 25.3018868,23.4609709 25.3018868,23.7735849 C25.3018868,24.0861989 25.5553105,24.3396226 25.8679245,24.3396226 L26.4339623,24.3396226 C26.7465763,24.3396226 27,24.0861989 27,23.7735849 C27,23.4609709 26.7465763,23.2075472 26.4339623,23.2075472 Z"/>
      <path stroke="#FFFFFF" stroke-width=".1" d="M0.33021405,24.3396226 L24.424689,24.3396226 C24.6904124,24.3396226 24.9058239,24.1216782 24.9058239,23.8528302 C24.9058239,23.5839821 24.6904124,23.3660377 24.424689,23.3660377 L22.9812843,23.3660377 L22.9812843,12.6566038 L25.3869588,12.6566038 C25.530291,12.6565516 25.6661371,12.5918465 25.7575021,12.4801098 C25.848867,12.3683731 25.8862364,12.2212406 25.8594332,12.0787811 L23.9348937,1.85613962 C23.8917034,1.62658181 23.6933833,1.46046147 23.4624192,1.46037736 L22.5001494,1.46037736 L22.5001494,0.486792453 C22.5001494,0.217944405 22.284738,0 22.0190145,0 L18.1699354,0 C17.9042119,0 17.6888005,0.217944405 17.6888005,0.486792453 L17.6888005,1.46037736 L5.17929321,1.46037736 C4.94832913,1.46046147 4.75000901,1.62658181 4.70681874,1.85613962 L2.78227916,12.0787811 C2.75547603,12.2212406 2.79284536,12.3683731 2.88421031,12.4801098 C2.97557525,12.5918465 3.11142143,12.6565516 3.25475363,12.6566038 L5.6604281,12.6566038 L5.6604281,23.3660377 L0.33021405,23.3660377 C0.11007135,23.5283019 -1.03028697e-12,23.690566 -1.03028697e-12,23.8528302 C-1.03028697e-12,24.0150943 0.11007135,24.1773585 0.33021405,24.3396226 Z M18.6510703,0.973584906 L21.5378796,0.973584906 L21.5378796,1.46037736 L18.6510703,1.46037736 L18.6510703,0.973584906 Z M5.5776729,2.43396226 L23.0640395,2.43396226 L24.8057478,11.6830189 L3.83596458,11.6830189 L5.5776729,2.43396226 Z M9.02837236,23.3660377 L9.02837236,18.0113208 L11.4340468,18.0113208 L11.4340468,23.3660377 L9.02837236,23.3660377 Z M12.3963166,23.3660377 L12.3963166,17.5245283 C12.3963166,17.2556803 12.1809052,17.0377358 11.9151817,17.0377358 L8.54723747,17.0377358 C8.281514,17.0377358 8.06610257,17.2556803 8.06610257,17.5245283 L8.06610257,23.3660377 L6.62269789,23.3660377 L6.62269789,12.6566038 L22.0190145,12.6566038 L22.0190145,23.3660377 L12.3963166,23.3660377 Z"/>
    </g>
    <line x1="6.623" x2="21.538" y1="5.042" y2="5.042" stroke="#FFFFFF" stroke-dasharray="1.5"/>
  </g>
</svg>
