
<svg width="130" height="40" viewBox="0 0 130 40" fill="none" xmlns="http://www.w3.org/2000/svg">
<rect x="0.5" y="1.00977" width="129" height="38.3802" rx="3.5" fill="#FAEAB5"/>
<rect x="0.5" y="1.00977" width="129" height="38.3802" rx="3.5" stroke="#FFCD1F"/>
<g filter="url(#filter0_d_57_5032)">
<path d="M17.207 24.0566L19.8527 25.5841L14.4802 34.8897L12.9381 31.4506L17.207 24.0566Z" fill="#CE4444"/>
<path d="M17.207 24.0566L14.5613 22.5291L9.18876 31.8347L12.9381 31.4506L17.207 24.0566Z" fill="#983535"/>
<path d="M20.9824 24.0566L18.3367 25.5841L23.7093 34.8897L25.2513 31.4506L20.9824 24.0566Z" fill="#983535"/>
<path d="M20.9824 24.0566L23.6281 22.5291L29.0007 31.8347L25.2513 31.4506L20.9824 24.0566Z" fill="#CE4444"/>
<circle cx="19.0129" cy="17.6496" r="9.18887" fill="url(#paint0_linear_57_5032)" stroke="#765C00" stroke-width="0.160493"/>
<circle cx="19.0125" cy="17.6492" r="7.11011" fill="#A88300"/>
<mask id="mask0_57_5032" style="mask-type:alpha" maskUnits="userSpaceOnUse" x="12" y="11" width="15" height="15">
<circle cx="19.3923" cy="18.4089" r="7.12666" fill="#C28B37"/>
</mask>
<g mask="url(#mask0_57_5032)">
<circle cx="19.0134" cy="17.6501" r="7.12666" fill="#C09525"/>
</g>
<path d="M19.0514 12.6914L20.5887 15.766L23.6634 16.1504L21.5521 18.5179L22.1261 21.9153L19.0514 20.378L15.9768 21.9153L16.5558 18.5179L14.4395 16.1504L17.5141 15.766L19.0514 12.6914Z" fill="url(#paint1_linear_57_5032)"/>
<path d="M10.2061 12.1279L11.2084 9.92184L10.2061 7.7158L12.4121 8.71817L14.6181 7.7158L13.6158 9.92184L14.6181 12.1279L12.4121 11.1255L10.2061 12.1279Z" fill="white"/>
</g>
<path d="M43.4587 10.6469C43.3517 10.4498 43.1969 10.3006 42.9942 10.1993C42.7972 10.0923 42.5636 10.0389 42.2933 10.0389C41.8261 10.0389 41.4517 10.1937 41.1702 10.5033C40.8887 10.8073 40.748 11.2155 40.748 11.7278C40.748 12.2738 40.8944 12.7017 41.1871 13.0113C41.4855 13.3153 41.8936 13.4673 42.4116 13.4673C42.7662 13.4673 43.0646 13.3772 43.3067 13.1971C43.5544 13.0169 43.7345 12.758 43.8471 12.4202H42.0147V11.3562H45.156V12.6989C45.049 13.0592 44.8661 13.3941 44.6071 13.7038C44.3538 14.0134 44.0301 14.2639 43.636 14.4553C43.2419 14.6467 42.7972 14.7424 42.3018 14.7424C41.7163 14.7424 41.1927 14.6158 40.7311 14.3624C40.2751 14.1035 39.9176 13.746 39.6587 13.29C39.4053 12.834 39.2787 12.3132 39.2787 11.7278C39.2787 11.1423 39.4053 10.6215 39.6587 10.1655C39.9176 9.7039 40.2751 9.34642 40.7311 9.09308C41.1871 8.83412 41.7079 8.70464 42.2933 8.70464C43.0027 8.70464 43.5994 8.87634 44.0836 9.21975C44.5733 9.56316 44.897 10.0389 45.0547 10.6469H43.4587ZM48.1007 14.7678C47.6391 14.7678 47.2225 14.6692 46.851 14.4722C46.485 14.2752 46.1951 13.9937 45.9812 13.6278C45.7729 13.2618 45.6687 12.834 45.6687 12.3442C45.6687 11.86 45.7757 11.435 45.9896 11.0691C46.2036 10.6975 46.4963 10.4132 46.8678 10.2162C47.2394 10.0192 47.656 9.92064 48.1176 9.92064C48.5793 9.92064 48.9958 10.0192 49.3674 10.2162C49.739 10.4132 50.0317 10.6975 50.2456 11.0691C50.4596 11.435 50.5665 11.86 50.5665 12.3442C50.5665 12.8283 50.4567 13.2562 50.2372 13.6278C50.0233 13.9937 49.7277 14.2752 49.3505 14.4722C48.979 14.6692 48.5624 14.7678 48.1007 14.7678ZM48.1007 13.518C48.3766 13.518 48.6102 13.4166 48.8016 13.214C48.9987 13.0113 49.0972 12.7214 49.0972 12.3442C49.0972 11.967 49.0015 11.6771 48.8101 11.4744C48.6243 11.2718 48.3935 11.1704 48.1176 11.1704C47.8361 11.1704 47.6025 11.2718 47.4167 11.4744C47.231 11.6715 47.1381 11.9614 47.1381 12.3442C47.1381 12.7214 47.2281 13.0113 47.4083 13.214C47.5941 13.4166 47.8249 13.518 48.1007 13.518ZM52.7766 8.45131V14.7002H51.3326V8.45131H52.7766ZM53.5359 12.3358C53.5359 11.8516 53.626 11.4266 53.8061 11.0606C53.9919 10.6947 54.2424 10.4132 54.5577 10.2162C54.873 10.0192 55.2248 9.92064 55.6133 9.92064C55.9229 9.92064 56.2044 9.98538 56.4577 10.1149C56.7167 10.2443 56.9193 10.4189 57.0657 10.6384V8.45131H58.5097V14.7002H57.0657V14.0246C56.9306 14.2498 56.7364 14.43 56.483 14.5651C56.2353 14.7002 55.9454 14.7678 55.6133 14.7678C55.2248 14.7678 54.873 14.6692 54.5577 14.4722C54.2424 14.2695 53.9919 13.9852 53.8061 13.6193C53.626 13.2478 53.5359 12.8199 53.5359 12.3358ZM57.0657 12.3442C57.0657 11.9839 56.9644 11.6996 56.7617 11.4913C56.5647 11.283 56.3226 11.1789 56.0355 11.1789C55.7484 11.1789 55.5035 11.283 55.3008 11.4913C55.1038 11.694 55.0053 11.9755 55.0053 12.3358C55.0053 12.696 55.1038 12.9832 55.3008 13.1971C55.5035 13.4054 55.7484 13.5095 56.0355 13.5095C56.3226 13.5095 56.5647 13.4054 56.7617 13.1971C56.9644 12.9888 57.0657 12.7045 57.0657 12.3442Z" fill="#765C00"/>
<path d="M45.384 22.7962V24.3387H43.2898V30.7002H41.3644V24.3387H39.2702V22.7962H45.384ZM49.2101 30.7903C48.5946 30.7903 48.0392 30.6589 47.5438 30.3962C47.0559 30.1335 46.6693 29.7582 46.3841 29.2703C46.1063 28.7824 45.9675 28.2119 45.9675 27.5589C45.9675 26.9133 46.1101 26.3466 46.3953 25.8587C46.6805 25.3633 47.0709 24.9842 47.5663 24.7215C48.0617 24.4588 48.6171 24.3275 49.2326 24.3275C49.8481 24.3275 50.4036 24.4588 50.899 24.7215C51.3944 24.9842 51.7847 25.3633 52.07 25.8587C52.3552 26.3466 52.4978 26.9133 52.4978 27.5589C52.4978 28.2044 52.3515 28.7749 52.0587 29.2703C51.7735 29.7582 51.3794 30.1335 50.8765 30.3962C50.3811 30.6589 49.8256 30.7903 49.2101 30.7903ZM49.2101 29.1239C49.5779 29.1239 49.8894 28.9888 50.1446 28.7186C50.4074 28.4483 50.5387 28.0618 50.5387 27.5589C50.5387 27.0559 50.4111 26.6694 50.1559 26.3992C49.9082 26.1289 49.6004 25.9938 49.2326 25.9938C48.8573 25.9938 48.5458 26.1289 48.2981 26.3992C48.0504 26.6619 47.9266 27.0484 47.9266 27.5589C47.9266 28.0618 48.0467 28.4483 48.2869 28.7186C48.5346 28.9888 48.8423 29.1239 49.2101 29.1239ZM55.4446 25.307C55.6322 25.0143 55.8912 24.7778 56.2215 24.5977C56.5517 24.4175 56.9383 24.3275 57.3812 24.3275C57.8991 24.3275 58.3682 24.4588 58.7886 24.7215C59.2089 24.9842 59.5392 25.3596 59.7794 25.8475C60.0271 26.3354 60.151 26.9021 60.151 27.5476C60.151 28.1931 60.0271 28.7636 59.7794 29.259C59.5392 29.7469 59.2089 30.126 58.7886 30.3962C58.3682 30.6589 57.8991 30.7903 57.3812 30.7903C56.9458 30.7903 56.5593 30.7002 56.2215 30.52C55.8912 30.3399 55.6322 30.1072 55.4446 29.822V33.6952H53.5193V24.4175H55.4446V25.307ZM58.1918 27.5476C58.1918 27.0672 58.0567 26.6919 57.7865 26.4217C57.5238 26.1439 57.1973 26.0051 56.807 26.0051C56.4241 26.0051 56.0976 26.1439 55.8274 26.4217C55.5647 26.6994 55.4333 27.0785 55.4333 27.5589C55.4333 28.0393 55.5647 28.4183 55.8274 28.696C56.0976 28.9738 56.4241 29.1126 56.807 29.1126C57.1898 29.1126 57.5163 28.9738 57.7865 28.696C58.0567 28.4108 58.1918 28.028 58.1918 27.5476ZM65.4724 25.307C65.66 25.0143 65.919 24.7778 66.2493 24.5977C66.5795 24.4175 66.9661 24.3275 67.409 24.3275C67.9269 24.3275 68.396 24.4588 68.8164 24.7215C69.2367 24.9842 69.567 25.3596 69.8072 25.8475C70.0549 26.3354 70.1787 26.9021 70.1787 27.5476C70.1787 28.1931 70.0549 28.7636 69.8072 29.259C69.567 29.7469 69.2367 30.126 68.8164 30.3962C68.396 30.6589 67.9269 30.7903 67.409 30.7903C66.9736 30.7903 66.587 30.7002 66.2493 30.52C65.919 30.3399 65.66 30.1072 65.4724 29.822V33.6952H63.547V24.4175H65.4724V25.307ZM68.2196 27.5476C68.2196 27.0672 68.0845 26.6919 67.8143 26.4217C67.5516 26.1439 67.2251 26.0051 66.8347 26.0051C66.4519 26.0051 66.1254 26.1439 65.8552 26.4217C65.5925 26.6994 65.4611 27.0785 65.4611 27.5589C65.4611 28.0393 65.5925 28.4183 65.8552 28.696C66.1254 28.9738 66.4519 29.1126 66.8347 29.1126C67.2176 29.1126 67.5441 28.9738 67.8143 28.696C68.0845 28.4108 68.2196 28.028 68.2196 27.5476ZM73.1141 25.4646C73.3393 25.1194 73.6208 24.8491 73.9586 24.654C74.2964 24.4513 74.6717 24.35 75.0845 24.35V26.3879H74.5553C74.0749 26.3879 73.7146 26.493 73.4744 26.7032C73.2342 26.9058 73.1141 27.2661 73.1141 27.784V30.7002H71.1888V24.4175H73.1141V25.4646ZM78.8646 30.7903C78.2491 30.7903 77.6937 30.6589 77.1983 30.3962C76.7104 30.1335 76.3238 29.7582 76.0386 29.2703C75.7608 28.7824 75.622 28.2119 75.622 27.5589C75.622 26.9133 75.7646 26.3466 76.0498 25.8587C76.3351 25.3633 76.7254 24.9842 77.2208 24.7215C77.7162 24.4588 78.2717 24.3275 78.8872 24.3275C79.5027 24.3275 80.0581 24.4588 80.5535 24.7215C81.0489 24.9842 81.4393 25.3633 81.7245 25.8587C82.0097 26.3466 82.1523 26.9133 82.1523 27.5589C82.1523 28.2044 82.006 28.7749 81.7132 29.2703C81.428 29.7582 81.0339 30.1335 80.531 30.3962C80.0356 30.6589 79.4801 30.7903 78.8646 30.7903ZM78.8646 29.1239C79.2324 29.1239 79.5439 28.9888 79.7992 28.7186C80.0619 28.4483 80.1932 28.0618 80.1932 27.5589C80.1932 27.0559 80.0656 26.6694 79.8104 26.3992C79.5627 26.1289 79.255 25.9938 78.8872 25.9938C78.5118 25.9938 78.2003 26.1289 77.9526 26.3992C77.7049 26.6619 77.5811 27.0484 77.5811 27.5589C77.5811 28.0618 77.7012 28.4483 77.9414 28.7186C78.1891 28.9888 78.4968 29.1239 78.8646 29.1239ZM85.0991 25.307C85.2868 25.0143 85.5457 24.7778 85.876 24.5977C86.2063 24.4175 86.5928 24.3275 87.0357 24.3275C87.5536 24.3275 88.0228 24.4588 88.4431 24.7215C88.8634 24.9842 89.1937 25.3596 89.4339 25.8475C89.6816 26.3354 89.8055 26.9021 89.8055 27.5476C89.8055 28.1931 89.6816 28.7636 89.4339 29.259C89.1937 29.7469 88.8634 30.126 88.4431 30.3962C88.0228 30.6589 87.5536 30.7903 87.0357 30.7903C86.6003 30.7903 86.2138 30.7002 85.876 30.52C85.5457 30.3399 85.2868 30.1072 85.0991 29.822V33.6952H83.1738V24.4175H85.0991V25.307ZM87.8464 27.5476C87.8464 27.0672 87.7112 26.6919 87.441 26.4217C87.1783 26.1439 86.8518 26.0051 86.4615 26.0051C86.0787 26.0051 85.7521 26.1439 85.4819 26.4217C85.2192 26.6994 85.0878 27.0785 85.0878 27.5589C85.0878 28.0393 85.2192 28.4183 85.4819 28.696C85.7521 28.9738 86.0787 29.1126 86.4615 29.1126C86.8443 29.1126 87.1708 28.9738 87.441 28.696C87.7112 28.4108 87.8464 28.028 87.8464 27.5476ZM96.7379 27.4575C96.7379 27.6377 96.7267 27.8253 96.7041 28.0205H92.3468C92.3768 28.4108 92.5007 28.7111 92.7184 28.9212C92.9436 29.1239 93.2175 29.2252 93.5403 29.2252C94.0207 29.2252 94.3547 29.0226 94.5424 28.6172H96.5916C96.4865 29.0301 96.2951 29.4016 96.0173 29.7319C95.7471 30.0622 95.4056 30.3211 94.9927 30.5088C94.5799 30.6964 94.1183 30.7903 93.6078 30.7903C92.9923 30.7903 92.4444 30.6589 91.964 30.3962C91.4836 30.1335 91.1083 29.7582 90.8381 29.2703C90.5678 28.7824 90.4327 28.2119 90.4327 27.5589C90.4327 26.9058 90.5641 26.3354 90.8268 25.8475C91.097 25.3596 91.4723 24.9842 91.9527 24.7215C92.4331 24.4588 92.9848 24.3275 93.6078 24.3275C94.2158 24.3275 94.7563 24.4551 95.2292 24.7103C95.7021 24.9655 96.0699 25.3295 96.3326 25.8024C96.6028 26.2753 96.7379 26.827 96.7379 27.4575ZM94.7676 26.9509C94.7676 26.6206 94.655 26.3579 94.4298 26.1627C94.2046 25.9676 93.9231 25.87 93.5853 25.87C93.2626 25.87 92.9886 25.9638 92.7634 26.1515C92.5457 26.3391 92.4106 26.6056 92.3581 26.9509H94.7676ZM99.679 25.4646C99.9041 25.1194 100.186 24.8491 100.523 24.654C100.861 24.4513 101.236 24.35 101.649 24.35V26.3879H101.12C100.64 26.3879 100.279 26.493 100.039 26.7032C99.7991 26.9058 99.679 27.2661 99.679 27.784V30.7002H97.7536V24.4175H99.679V25.4646ZM106.071 29.0676V30.7002H105.092C104.394 30.7002 103.849 30.5313 103.459 30.1935C103.069 29.8482 102.874 29.289 102.874 28.5159V26.0163H102.108V24.4175H102.874V22.8863H104.799V24.4175H106.06V26.0163H104.799V28.5384C104.799 28.7261 104.844 28.8612 104.934 28.9438C105.024 29.0263 105.174 29.0676 105.384 29.0676H106.071ZM113.561 24.4175L109.621 33.6839H107.549L108.99 30.4863L106.434 24.4175H108.585L110.037 28.347L111.478 24.4175H113.561Z" fill="#765C00"/>
<defs>
<filter id="filter0_d_57_5032" x="9.06371" y="7.59007" width="21.8225" height="29.1858" filterUnits="userSpaceOnUse" color-interpolation-filters="sRGB">
<feFlood flood-opacity="0" result="BackgroundImageFix"/>
<feColorMatrix in="SourceAlpha" type="matrix" values="0 0 0 0 0 0 0 0 0 0 0 0 0 0 0 0 0 0 127 0" result="hardAlpha"/>
<feOffset dx="0.880224" dy="0.880224"/>
<feGaussianBlur stdDeviation="0.502985"/>
<feComposite in2="hardAlpha" operator="out"/>
<feColorMatrix type="matrix" values="0 0 0 0 0 0 0 0 0 0 0 0 0 0 0 0 0 0 0.3 0"/>
<feBlend mode="normal" in2="BackgroundImageFix" result="effect1_dropShadow_57_5032"/>
<feBlend mode="normal" in="SourceGraphic" in2="effect1_dropShadow_57_5032" result="shape"/>
</filter>
<linearGradient id="paint0_linear_57_5032" x1="19.0129" y1="8.54102" x2="19.0129" y2="26.7583" gradientUnits="userSpaceOnUse">
<stop stop-color="#FFC600"/>
<stop offset="1" stop-color="#FFDE69"/>
</linearGradient>
<linearGradient id="paint1_linear_57_5032" x1="19.0514" y1="12.6914" x2="19.0514" y2="21.9153" gradientUnits="userSpaceOnUse">
<stop stop-color="#FFFCDD"/>
<stop offset="1" stop-color="#FFE896"/>
</linearGradient>
</defs>
</svg>
