<svg width="130" height="39" viewBox="0 0 130 39" fill="none" xmlns="http://www.w3.org/2000/svg">
<rect x="0.5" y="0.5" width="129" height="38" rx="3.5" fill="#FAD2B5"/>
<rect x="0.5" y="0.5" width="129" height="38" rx="3.5" stroke="#CC8112"/>
<g filter="url(#filter0_d_57_5982)">
<path d="M16.5 21.9824L19.3045 23.6016L13.6095 33.4656L11.9749 29.8201L16.5 21.9824Z" fill="#AA75CB"/>
<path d="M16.5 21.9824L13.6955 20.3633L8.00051 30.2273L11.9749 29.8201L16.5 21.9824Z" fill="#73488D"/>
<path d="M20.5 21.9824L17.6955 23.6016L23.3905 33.4656L25.0251 29.8201L20.5 21.9824Z" fill="#73488D"/>
<path d="M20.5 21.9824L23.3045 20.3633L28.9995 30.2273L25.0251 29.8201L20.5 21.9824Z" fill="#AA75CB"/>
<circle cx="18.4951" cy="15.1904" r="9.74035" fill="#FDD49C" stroke="#CC8212" stroke-width="0.170125"/>
<circle cx="18.4958" cy="15.1901" r="7.53682" fill="#734C12"/>
<mask id="mask0_57_5982" style="mask-type:alpha" maskUnits="userSpaceOnUse" x="11" y="8" width="16" height="16">
<circle cx="18.8981" cy="15.9948" r="7.55437" fill="#C28B37"/>
</mask>
<g mask="url(#mask0_57_5982)">
<circle cx="18.4958" cy="15.1901" r="7.55437" fill="#D6AC6D"/>
</g>
<path d="M18.5352 9.93555L20.1648 13.1947L23.424 13.6021L21.186 16.1117L21.7944 19.713L18.5352 18.0835L15.2761 19.713L15.8899 16.1117L13.6465 13.6021L16.9057 13.1947L18.5352 9.93555Z" fill="url(#paint0_linear_57_5982)"/>
</g>
<path d="M41.6684 14.0591C41.235 14.0591 40.8465 13.9887 40.5031 13.848C40.1597 13.7073 39.8839 13.499 39.6756 13.2231C39.4729 12.9473 39.3659 12.6151 39.3547 12.2267H40.8916C40.9141 12.4462 40.9901 12.6151 41.1196 12.7333C41.249 12.8459 41.4179 12.9022 41.6262 12.9022C41.8401 12.9022 42.009 12.8544 42.1329 12.7587C42.2567 12.6573 42.3187 12.5194 42.3187 12.3449C42.3187 12.1985 42.268 12.0775 42.1667 11.9818C42.071 11.8861 41.9499 11.8073 41.8036 11.7453C41.6628 11.6834 41.4601 11.613 41.1956 11.5342C40.8127 11.416 40.5003 11.2978 40.2582 11.1796C40.0161 11.0613 39.8079 10.8868 39.6333 10.656C39.4588 10.4252 39.3716 10.124 39.3716 9.75244C39.3716 9.20074 39.5714 8.77007 39.9711 8.46044C40.3708 8.14518 40.8916 7.98756 41.5333 7.98756C42.1864 7.98756 42.7127 8.14518 43.1124 8.46044C43.5121 8.77007 43.7261 9.20356 43.7542 9.76089H42.192C42.1807 9.56948 42.1104 9.4203 41.9809 9.31333C41.8514 9.20074 41.6853 9.14444 41.4827 9.14444C41.3081 9.14444 41.1674 9.1923 41.0604 9.288C40.9535 9.37807 40.9 9.51037 40.9 9.68489C40.9 9.8763 40.9901 10.0255 41.1702 10.1324C41.3504 10.2394 41.6319 10.3548 42.0147 10.4787C42.3975 10.6081 42.7071 10.732 42.9436 10.8502C43.1856 10.9684 43.3939 11.1401 43.5684 11.3653C43.743 11.5905 43.8302 11.8804 43.8302 12.2351C43.8302 12.5729 43.743 12.8797 43.5684 13.1556C43.3996 13.4314 43.1519 13.651 42.8253 13.8142C42.4988 13.9775 42.1132 14.0591 41.6684 14.0591ZM45.4451 8.79822C45.1918 8.79822 44.9835 8.72504 44.8202 8.57867C44.6626 8.42667 44.5838 8.24089 44.5838 8.02133C44.5838 7.79615 44.6626 7.61037 44.8202 7.464C44.9835 7.312 45.1918 7.236 45.4451 7.236C45.6928 7.236 45.8955 7.312 46.0531 7.464C46.2163 7.61037 46.298 7.79615 46.298 8.02133C46.298 8.24089 46.2163 8.42667 46.0531 8.57867C45.8955 8.72504 45.6928 8.79822 45.4451 8.79822ZM46.1629 9.288V14H44.7189V9.288H46.1629ZM48.6533 7.75111V14H47.2093V7.75111H48.6533ZM51.8193 12.6489L52.8411 9.288H54.378L52.706 14H50.9242L49.2522 9.288H50.7975L51.8193 12.6489ZM59.4276 11.568C59.4276 11.7031 59.4191 11.8439 59.4022 11.9902H56.1342C56.1568 12.283 56.2496 12.5081 56.4129 12.6658C56.5818 12.8178 56.7873 12.8938 57.0294 12.8938C57.3896 12.8938 57.6402 12.7418 57.7809 12.4378H59.3178C59.239 12.7474 59.0954 13.0261 58.8871 13.2738C58.6845 13.5215 58.4283 13.7157 58.1187 13.8564C57.8091 13.9972 57.4628 14.0676 57.08 14.0676C56.6184 14.0676 56.2074 13.969 55.8471 13.772C55.4868 13.575 55.2054 13.2935 55.0027 12.9276C54.8 12.5616 54.6987 12.1338 54.6987 11.644C54.6987 11.1542 54.7972 10.7264 54.9942 10.3604C55.1969 9.99452 55.4784 9.71304 55.8387 9.516C56.199 9.31896 56.6128 9.22044 57.08 9.22044C57.536 9.22044 57.9414 9.31615 58.296 9.50756C58.6507 9.69896 58.9265 9.972 59.1236 10.3267C59.3262 10.6813 59.4276 11.0951 59.4276 11.568ZM57.9498 11.188C57.9498 10.9403 57.8654 10.7433 57.6965 10.5969C57.5276 10.4505 57.3165 10.3773 57.0631 10.3773C56.8211 10.3773 56.6156 10.4477 56.4467 10.5884C56.2834 10.7292 56.1821 10.929 56.1427 11.188H57.9498ZM61.6334 10.0733C61.8022 9.81437 62.0134 9.6117 62.2667 9.46533C62.52 9.31333 62.8015 9.23733 63.1111 9.23733V10.7658H62.7142C62.3539 10.7658 62.0837 10.8446 61.9036 11.0022C61.7234 11.1542 61.6334 11.4244 61.6334 11.8129V14H60.1894V9.288H61.6334V10.0733Z" fill="#DC7D39"/>
<path d="M45.384 22.096V23.6385H43.2898V30H41.3644V23.6385H39.2702V22.096H45.384ZM49.2101 30.0901C48.5946 30.0901 48.0392 29.9587 47.5438 29.696C47.0559 29.4333 46.6693 29.058 46.3841 28.5701C46.1063 28.0822 45.9675 27.5117 45.9675 26.8587C45.9675 26.2131 46.1101 25.6464 46.3953 25.1585C46.6805 24.6631 47.0709 24.284 47.5663 24.0213C48.0617 23.7586 48.6171 23.6273 49.2326 23.6273C49.8481 23.6273 50.4036 23.7586 50.899 24.0213C51.3944 24.284 51.7847 24.6631 52.07 25.1585C52.3552 25.6464 52.4978 26.2131 52.4978 26.8587C52.4978 27.5042 52.3515 28.0747 52.0587 28.5701C51.7735 29.058 51.3794 29.4333 50.8765 29.696C50.3811 29.9587 49.8256 30.0901 49.2101 30.0901ZM49.2101 28.4237C49.5779 28.4237 49.8894 28.2886 50.1446 28.0184C50.4074 27.7481 50.5387 27.3616 50.5387 26.8587C50.5387 26.3558 50.4111 25.9692 50.1559 25.699C49.9082 25.4287 49.6004 25.2936 49.2326 25.2936C48.8573 25.2936 48.5458 25.4287 48.2981 25.699C48.0504 25.9617 47.9266 26.3482 47.9266 26.8587C47.9266 27.3616 48.0467 27.7481 48.2869 28.0184C48.5346 28.2886 48.8423 28.4237 49.2101 28.4237ZM55.4446 24.6068C55.6322 24.3141 55.8912 24.0776 56.2215 23.8975C56.5517 23.7173 56.9383 23.6273 57.3812 23.6273C57.8991 23.6273 58.3682 23.7586 58.7886 24.0213C59.2089 24.284 59.5392 24.6594 59.7794 25.1473C60.0271 25.6352 60.151 26.2019 60.151 26.8474C60.151 27.4929 60.0271 28.0634 59.7794 28.5588C59.5392 29.0467 59.2089 29.4258 58.7886 29.696C58.3682 29.9587 57.8991 30.0901 57.3812 30.0901C56.9458 30.0901 56.5593 30 56.2215 29.8199C55.8912 29.6397 55.6322 29.407 55.4446 29.1218V32.995H53.5193V23.7173H55.4446V24.6068ZM58.1918 26.8474C58.1918 26.367 58.0567 25.9917 57.7865 25.7215C57.5238 25.4438 57.1973 25.3049 56.807 25.3049C56.4241 25.3049 56.0976 25.4438 55.8274 25.7215C55.5647 25.9992 55.4333 26.3783 55.4333 26.8587C55.4333 27.3391 55.5647 27.7181 55.8274 27.9959C56.0976 28.2736 56.4241 28.4124 56.807 28.4124C57.1898 28.4124 57.5163 28.2736 57.7865 27.9959C58.0567 27.7106 58.1918 27.3278 58.1918 26.8474ZM65.4724 24.6068C65.66 24.3141 65.919 24.0776 66.2493 23.8975C66.5795 23.7173 66.9661 23.6273 67.409 23.6273C67.9269 23.6273 68.396 23.7586 68.8164 24.0213C69.2367 24.284 69.567 24.6594 69.8072 25.1473C70.0549 25.6352 70.1787 26.2019 70.1787 26.8474C70.1787 27.4929 70.0549 28.0634 69.8072 28.5588C69.567 29.0467 69.2367 29.4258 68.8164 29.696C68.396 29.9587 67.9269 30.0901 67.409 30.0901C66.9736 30.0901 66.587 30 66.2493 29.8199C65.919 29.6397 65.66 29.407 65.4724 29.1218V32.995H63.547V23.7173H65.4724V24.6068ZM68.2196 26.8474C68.2196 26.367 68.0845 25.9917 67.8143 25.7215C67.5516 25.4438 67.2251 25.3049 66.8347 25.3049C66.4519 25.3049 66.1254 25.4438 65.8552 25.7215C65.5925 25.9992 65.4611 26.3783 65.4611 26.8587C65.4611 27.3391 65.5925 27.7181 65.8552 27.9959C66.1254 28.2736 66.4519 28.4124 66.8347 28.4124C67.2176 28.4124 67.5441 28.2736 67.8143 27.9959C68.0845 27.7106 68.2196 27.3278 68.2196 26.8474ZM73.1141 24.7644C73.3393 24.4192 73.6208 24.1489 73.9586 23.9538C74.2964 23.7511 74.6717 23.6498 75.0845 23.6498V25.6877H74.5553C74.0749 25.6877 73.7146 25.7928 73.4744 26.003C73.2342 26.2056 73.1141 26.5659 73.1141 27.0839V30H71.1888V23.7173H73.1141V24.7644ZM78.8646 30.0901C78.2491 30.0901 77.6937 29.9587 77.1983 29.696C76.7104 29.4333 76.3238 29.058 76.0386 28.5701C75.7608 28.0822 75.622 27.5117 75.622 26.8587C75.622 26.2131 75.7646 25.6464 76.0498 25.1585C76.3351 24.6631 76.7254 24.284 77.2208 24.0213C77.7162 23.7586 78.2717 23.6273 78.8872 23.6273C79.5027 23.6273 80.0581 23.7586 80.5535 24.0213C81.0489 24.284 81.4393 24.6631 81.7245 25.1585C82.0097 25.6464 82.1523 26.2131 82.1523 26.8587C82.1523 27.5042 82.006 28.0747 81.7132 28.5701C81.428 29.058 81.0339 29.4333 80.531 29.696C80.0356 29.9587 79.4801 30.0901 78.8646 30.0901ZM78.8646 28.4237C79.2324 28.4237 79.5439 28.2886 79.7992 28.0184C80.0619 27.7481 80.1932 27.3616 80.1932 26.8587C80.1932 26.3558 80.0656 25.9692 79.8104 25.699C79.5627 25.4287 79.255 25.2936 78.8872 25.2936C78.5118 25.2936 78.2003 25.4287 77.9526 25.699C77.7049 25.9617 77.5811 26.3482 77.5811 26.8587C77.5811 27.3616 77.7012 27.7481 77.9414 28.0184C78.1891 28.2886 78.4968 28.4237 78.8646 28.4237ZM85.0991 24.6068C85.2868 24.3141 85.5457 24.0776 85.876 23.8975C86.2063 23.7173 86.5928 23.6273 87.0357 23.6273C87.5536 23.6273 88.0228 23.7586 88.4431 24.0213C88.8634 24.284 89.1937 24.6594 89.4339 25.1473C89.6816 25.6352 89.8055 26.2019 89.8055 26.8474C89.8055 27.4929 89.6816 28.0634 89.4339 28.5588C89.1937 29.0467 88.8634 29.4258 88.4431 29.696C88.0228 29.9587 87.5536 30.0901 87.0357 30.0901C86.6003 30.0901 86.2138 30 85.876 29.8199C85.5457 29.6397 85.2868 29.407 85.0991 29.1218V32.995H83.1738V23.7173H85.0991V24.6068ZM87.8464 26.8474C87.8464 26.367 87.7112 25.9917 87.441 25.7215C87.1783 25.4438 86.8518 25.3049 86.4615 25.3049C86.0787 25.3049 85.7521 25.4438 85.4819 25.7215C85.2192 25.9992 85.0878 26.3783 85.0878 26.8587C85.0878 27.3391 85.2192 27.7181 85.4819 27.9959C85.7521 28.2736 86.0787 28.4124 86.4615 28.4124C86.8443 28.4124 87.1708 28.2736 87.441 27.9959C87.7112 27.7106 87.8464 27.3278 87.8464 26.8474ZM96.7379 26.7573C96.7379 26.9375 96.7267 27.1251 96.7041 27.3203H92.3468C92.3768 27.7106 92.5007 28.0109 92.7184 28.221C92.9436 28.4237 93.2175 28.525 93.5403 28.525C94.0207 28.525 94.3547 28.3224 94.5424 27.917H96.5916C96.4865 28.3299 96.2951 28.7014 96.0173 29.0317C95.7471 29.362 95.4056 29.6209 94.9927 29.8086C94.5799 29.9962 94.1183 30.0901 93.6078 30.0901C92.9923 30.0901 92.4444 29.9587 91.964 29.696C91.4836 29.4333 91.1083 29.058 90.8381 28.5701C90.5678 28.0822 90.4327 27.5117 90.4327 26.8587C90.4327 26.2056 90.5641 25.6352 90.8268 25.1473C91.097 24.6594 91.4723 24.284 91.9527 24.0213C92.4331 23.7586 92.9848 23.6273 93.6078 23.6273C94.2158 23.6273 94.7563 23.7549 95.2292 24.0101C95.7021 24.2653 96.0699 24.6293 96.3326 25.1022C96.6028 25.5751 96.7379 26.1268 96.7379 26.7573ZM94.7676 26.2507C94.7676 25.9204 94.655 25.6577 94.4298 25.4625C94.2046 25.2674 93.9231 25.1698 93.5853 25.1698C93.2626 25.1698 92.9886 25.2636 92.7634 25.4513C92.5457 25.6389 92.4106 25.9054 92.3581 26.2507H94.7676ZM99.679 24.7644C99.9041 24.4192 100.186 24.1489 100.523 23.9538C100.861 23.7511 101.236 23.6498 101.649 23.6498V25.6877H101.12C100.64 25.6877 100.279 25.7928 100.039 26.003C99.7991 26.2056 99.679 26.5659 99.679 27.0839V30H97.7536V23.7173H99.679V24.7644ZM106.071 28.3674V30H105.092C104.394 30 103.849 29.8311 103.459 29.4933C103.069 29.148 102.874 28.5888 102.874 27.8157V25.3161H102.108V23.7173H102.874V22.1861H104.799V23.7173H106.06V25.3161H104.799V27.8382C104.799 28.0259 104.844 28.161 104.934 28.2436C105.024 28.3261 105.174 28.3674 105.384 28.3674H106.071ZM113.561 23.7173L109.621 32.9837H107.549L108.99 29.7861L106.434 23.7173H108.585L110.037 27.6468L111.478 23.7173H113.561Z" fill="#DC7D39"/>
<defs>
<filter id="filter0_d_57_5982" x="7.86671" y="5.23194" width="23.1327" height="30.2333" filterUnits="userSpaceOnUse" color-interpolation-filters="sRGB">
<feFlood flood-opacity="0" result="BackgroundImageFix"/>
<feColorMatrix in="SourceAlpha" type="matrix" values="0 0 0 0 0 0 0 0 0 0 0 0 0 0 0 0 0 0 127 0" result="hardAlpha"/>
<feOffset dx="0.933051" dy="0.933051"/>
<feGaussianBlur stdDeviation="0.533172"/>
<feComposite in2="hardAlpha" operator="out"/>
<feColorMatrix type="matrix" values="0 0 0 0 0 0 0 0 0 0 0 0 0 0 0 0 0 0 0.3 0"/>
<feBlend mode="normal" in2="BackgroundImageFix" result="effect1_dropShadow_57_5982"/>
<feBlend mode="normal" in="SourceGraphic" in2="effect1_dropShadow_57_5982" result="shape"/>
</filter>
<linearGradient id="paint0_linear_57_5982" x1="18.5352" y1="9.93555" x2="18.5352" y2="19.713" gradientUnits="userSpaceOnUse">
<stop stop-color="#FCFF80"/>
<stop offset="0.401042" stop-color="#FDE870"/>
<stop offset="1" stop-color="#FFC759"/>
</linearGradient>
</defs>
</svg>
